<?xml version="1.0" encoding="us-ascii" standalone="no"?><svg xmlns="http://www.w3.org/2000/svg" xmlns:xlink="http://www.w3.org/1999/xlink" contentStyleType="text/css" height="625px" preserveAspectRatio="none" style="width:684px;height:625px;background:#FFFFFF;" version="1.1" viewBox="0 0 684 625" width="684px" zoomAndPan="magnify"><defs/><g><rect fill="#FFFFFF" height="485.5703" style="stroke:#181818;stroke-width:1.0;" width="10" x="47" y="77.9609"/><rect fill="#FFFFFF" height="442.2188" style="stroke:#181818;stroke-width:1.0;" width="10" x="296" y="121.3125"/><rect fill="#FFFFFF" height="398.8672" style="stroke:#181818;stroke-width:1.0;" width="10" x="474" y="164.6641"/><rect fill="none" height="135.4063" style="stroke:#000000;stroke-width:1.5;" width="469" x="10" y="258.3672"/><line style="stroke:#181818;stroke-width:0.5;stroke-dasharray:5.0,5.0;" x1="52" x2="52" y1="37.6094" y2="588.5313"/><line style="stroke:#181818;stroke-width:0.5;stroke-dasharray:5.0,5.0;" x1="300.5" x2="300.5" y1="37.6094" y2="588.5313"/><line style="stroke:#181818;stroke-width:0.5;stroke-dasharray:5.0,5.0;" x1="479" x2="479" y1="37.6094" y2="588.5313"/><rect fill="#E2E2F0" height="31.6094" rx="2.5" ry="2.5" style="stroke:#181818;stroke-width:0.5;" width="64" x="20" y="5"/><text fill="#000000" font-family="sans-serif" font-size="14" lengthAdjust="spacing" textLength="50" x="27" y="26.5332">Network</text><rect fill="#E2E2F0" height="31.6094" rx="2.5" ry="2.5" style="stroke:#181818;stroke-width:0.5;" width="64" x="20" y="587.5313"/><text fill="#000000" font-family="sans-serif" font-size="14" lengthAdjust="spacing" textLength="50" x="27" y="609.0645">Network</text><rect fill="#E2E2F0" height="31.6094" rx="2.5" ry="2.5" style="stroke:#181818;stroke-width:0.5;" width="69" x="266.5" y="5"/><text fill="#000000" font-family="sans-serif" font-size="14" lengthAdjust="spacing" textLength="55" x="273.5" y="26.5332">Assigner</text><rect fill="#E2E2F0" height="31.6094" rx="2.5" ry="2.5" style="stroke:#181818;stroke-width:0.5;" width="69" x="266.5" y="587.5313"/><text fill="#000000" font-family="sans-serif" font-size="14" lengthAdjust="spacing" textLength="55" x="273.5" y="609.0645">Assigner</text><rect fill="#E2E2F0" height="31.6094" rx="2.5" ry="2.5" style="stroke:#181818;stroke-width:0.5;" width="66" x="446" y="5"/><text fill="#000000" font-family="sans-serif" font-size="14" lengthAdjust="spacing" textLength="52" x="453" y="26.5332">Elevator</text><rect fill="#E2E2F0" height="31.6094" rx="2.5" ry="2.5" style="stroke:#181818;stroke-width:0.5;" width="66" x="446" y="587.5313"/><text fill="#000000" font-family="sans-serif" font-size="14" lengthAdjust="spacing" textLength="52" x="453" y="609.0645">Elevator</text><rect fill="#FFFFFF" height="485.5703" style="stroke:#181818;stroke-width:1.0;" width="10" x="47" y="77.9609"/><rect fill="#FFFFFF" height="442.2188" style="stroke:#181818;stroke-width:1.0;" width="10" x="296" y="121.3125"/><rect fill="#FFFFFF" height="398.8672" style="stroke:#181818;stroke-width:1.0;" width="10" x="474" y="164.6641"/><line style="stroke:#181818;stroke-width:1.0;" x1="52" x2="99" y1="64.9609" y2="64.9609"/><line style="stroke:#181818;stroke-width:1.0;" x1="99" x2="99" y1="64.9609" y2="77.9609"/><line style="stroke:#181818;stroke-width:1.0;" x1="58" x2="99" y1="77.9609" y2="77.9609"/><line style="stroke:#181818;stroke-width:1.0;" x1="58" x2="68" y1="77.9609" y2="73.9609"/><line style="stroke:#181818;stroke-width:1.0;" x1="58" x2="68" y1="77.9609" y2="81.9609"/><text fill="#000000" font-family="sans-serif" font-size="13" lengthAdjust="spacing" textLength="25" x="64" y="60.1045">init()</text><line style="stroke:#181818;stroke-width:1.0;" x1="301" x2="348" y1="108.3125" y2="108.3125"/><line style="stroke:#181818;stroke-width:1.0;" x1="348" x2="348" y1="108.3125" y2="121.3125"/><line style="stroke:#181818;stroke-width:1.0;" x1="307" x2="348" y1="121.3125" y2="121.3125"/><line style="stroke:#181818;stroke-width:1.0;" x1="307" x2="317" y1="121.3125" y2="117.3125"/><line style="stroke:#181818;stroke-width:1.0;" x1="307" x2="317" y1="121.3125" y2="125.3125"/><text fill="#000000" font-family="sans-serif" font-size="13" lengthAdjust="spacing" textLength="25" x="313" y="103.4561">init()</text><line style="stroke:#181818;stroke-width:1.0;" x1="479" x2="526" y1="151.6641" y2="151.6641"/><line style="stroke:#181818;stroke-width:1.0;" x1="526" x2="526" y1="151.6641" y2="164.6641"/><line style="stroke:#181818;stroke-width:1.0;" x1="485" x2="526" y1="164.6641" y2="164.6641"/><line style="stroke:#181818;stroke-width:1.0;" x1="485" x2="495" y1="164.6641" y2="160.6641"/><line style="stroke:#181818;stroke-width:1.0;" x1="485" x2="495" y1="164.6641" y2="168.6641"/><text fill="#000000" font-family="sans-serif" font-size="13" lengthAdjust="spacing" textLength="25" x="491" y="146.8076">init()</text><line style="stroke:#181818;stroke-width:1.0;" x1="58" x2="68" y1="200.0156" y2="196.0156"/><line style="stroke:#181818;stroke-width:1.0;" x1="58" x2="68" y1="200.0156" y2="204.0156"/><line style="stroke:#181818;stroke-width:1.0;" x1="57" x2="473" y1="200.0156" y2="200.0156"/><text fill="#000000" font-family="sans-serif" font-size="13" lengthAdjust="spacing" textLength="118" x="74" y="195.1592">Send elevator status</text><line style="stroke:#181818;stroke-width:1.0;" x1="57" x2="99" y1="230.3672" y2="230.3672"/><line style="stroke:#181818;stroke-width:1.0;" x1="99" x2="99" y1="230.3672" y2="243.3672"/><line style="stroke:#181818;stroke-width:1.0;" x1="58" x2="99" y1="243.3672" y2="243.3672"/><line style="stroke:#181818;stroke-width:1.0;" x1="58" x2="68" y1="243.3672" y2="239.3672"/><line style="stroke:#181818;stroke-width:1.0;" x1="58" x2="68" y1="243.3672" y2="247.3672"/><text fill="#000000" font-family="sans-serif" font-size="13" lengthAdjust="spacing" textLength="180" x="64" y="225.5107">Broadcast snapshot to network</text><path d="M10,258.3672 L83,258.3672 L83,266.7188 L73,276.7188 L10,276.7188 L10,258.3672 " fill="#EEEEEE" style="stroke:#000000;stroke-width:1.5;"/><rect fill="none" height="135.4063" style="stroke:#000000;stroke-width:1.5;" width="469" x="10" y="258.3672"/><text fill="#000000" font-family="sans-serif" font-size="13" font-weight="bold" lengthAdjust="spacing" textLength="28" x="25" y="272.8623">loop</text><text fill="#000000" font-family="sans-serif" font-size="11" font-weight="bold" lengthAdjust="spacing" textLength="192" x="98" y="271.7861">[while data invalid and not timeout]</text><line style="stroke:#181818;stroke-width:1.0;" x1="294" x2="284" y1="299.0703" y2="295.0703"/><line style="stroke:#181818;stroke-width:1.0;" x1="294" x2="284" y1="299.0703" y2="303.0703"/><line style="stroke:#181818;stroke-width:1.0;" x1="57" x2="295" y1="299.0703" y2="299.0703"/><text fill="#000000" font-family="sans-serif" font-size="13" lengthAdjust="spacing" textLength="215" x="64" y="294.2139">Send updated snapshot from network</text><line style="stroke:#181818;stroke-width:1.0;" x1="306" x2="348" y1="329.4219" y2="329.4219"/><line style="stroke:#181818;stroke-width:1.0;" x1="348" x2="348" y1="329.4219" y2="342.4219"/><line style="stroke:#181818;stroke-width:1.0;" x1="307" x2="348" y1="342.4219" y2="342.4219"/><line style="stroke:#181818;stroke-width:1.0;" x1="307" x2="317" y1="342.4219" y2="338.4219"/><line style="stroke:#181818;stroke-width:1.0;" x1="307" x2="317" y1="342.4219" y2="346.4219"/><text fill="#000000" font-family="sans-serif" font-size="13" lengthAdjust="spacing" textLength="154" x="313" y="324.5654">Calculate best assignment</text><line style="stroke:#181818;stroke-width:1.0;" x1="57" x2="99" y1="372.7734" y2="372.7734"/><line style="stroke:#181818;stroke-width:1.0;" x1="99" x2="99" y1="372.7734" y2="385.7734"/><line style="stroke:#181818;stroke-width:1.0;" x1="58" x2="99" y1="385.7734" y2="385.7734"/><line style="stroke:#181818;stroke-width:1.0;" x1="58" x2="68" y1="385.7734" y2="381.7734"/><line style="stroke:#181818;stroke-width:1.0;" x1="58" x2="68" y1="385.7734" y2="389.7734"/><text fill="#000000" font-family="sans-serif" font-size="13" lengthAdjust="spacing" textLength="203" x="64" y="367.917">Compare own data to received data</text><line style="stroke:#181818;stroke-width:1.0;" x1="294" x2="284" y1="423.125" y2="419.125"/><line style="stroke:#181818;stroke-width:1.0;" x1="294" x2="284" y1="423.125" y2="427.125"/><line style="stroke:#181818;stroke-width:1.0;" x1="57" x2="295" y1="423.125" y2="423.125"/><text fill="#000000" font-family="sans-serif" font-size="13" lengthAdjust="spacing" textLength="81" x="64" y="418.2686">Data valid ack</text><line style="stroke:#181818;stroke-width:1.0;" x1="472" x2="462" y1="453.4766" y2="449.4766"/><line style="stroke:#181818;stroke-width:1.0;" x1="472" x2="462" y1="453.4766" y2="457.4766"/><line style="stroke:#181818;stroke-width:1.0;" x1="306" x2="473" y1="453.4766" y2="453.4766"/><text fill="#000000" font-family="sans-serif" font-size="13" lengthAdjust="spacing" textLength="134" x="313" y="448.6201">Share best assignment</text><line style="stroke:#181818;stroke-width:1.0;" x1="484" x2="526" y1="483.8281" y2="483.8281"/><line style="stroke:#181818;stroke-width:1.0;" x1="526" x2="526" y1="483.8281" y2="496.8281"/><line style="stroke:#181818;stroke-width:1.0;" x1="485" x2="526" y1="496.8281" y2="496.8281"/><line style="stroke:#181818;stroke-width:1.0;" x1="485" x2="495" y1="496.8281" y2="492.8281"/><line style="stroke:#181818;stroke-width:1.0;" x1="485" x2="495" y1="496.8281" y2="500.8281"/><text fill="#000000" font-family="sans-serif" font-size="13" lengthAdjust="spacing" textLength="186" x="491" y="478.9717">Calculate best path, run elevator</text><line style="stroke:#181818;stroke-width:1.0;" x1="58" x2="68" y1="527.1797" y2="523.1797"/><line style="stroke:#181818;stroke-width:1.0;" x1="58" x2="68" y1="527.1797" y2="531.1797"/><line style="stroke:#181818;stroke-width:1.0;" x1="57" x2="473" y1="527.1797" y2="527.1797"/><text fill="#000000" font-family="sans-serif" font-size="13" lengthAdjust="spacing" textLength="122" x="74" y="522.3232">Share elevator status</text><line style="stroke:#181818;stroke-width:1.0;" x1="57" x2="99" y1="562.5313" y2="562.5313"/><line style="stroke:#181818;stroke-width:1.0;" x1="99" x2="99" y1="562.5313" y2="575.5313"/><line style="stroke:#181818;stroke-width:1.0;" x1="52" x2="99" y1="575.5313" y2="575.5313"/><line style="stroke:#181818;stroke-width:1.0;" x1="52" x2="62" y1="575.5313" y2="571.5313"/><line style="stroke:#181818;stroke-width:1.0;" x1="52" x2="62" y1="575.5313" y2="579.5313"/><text fill="#000000" font-family="sans-serif" font-size="13" lengthAdjust="spacing" textLength="180" x="64" y="557.6748">Broadcast snapshot to network</text><!--SRC=[hP91KiCm34NtFOMMC0CNOD4PA6pPz0IgBOW6H_ROId9z73SEIPlis7aa__ptymq0430g6mue2f-aWuy_1xYPlwR4tqBnRl7Xg4VryL0sa_pvU9nEBooi3uzbYKOvtwMLIVrmbjJZfcO5K4spg1wNehLoJRYGLaGuarYWQG59KRkq4mVUeaThC2aamP0Qhw0UP4fKLCxx04F3Zi2Y8h3qwDW2PXSPxtDBljCRXpdz5QSBMKlsp-Kh-dRssVjpS49dEZV6lb1cnB9eINGlpyctkKu2FyYLDgU9P8ZxR3uEYZ0JxUA-ZwefeRb3c_k1SpFwR65jrNcR9A0sJn0xcOlQhxCO_L-VbZPVxcAyUfoBUQNx1G00]--></g></svg>