<?xml version="1.0" encoding="us-ascii" standalone="no"?><svg xmlns="http://www.w3.org/2000/svg" xmlns:xlink="http://www.w3.org/1999/xlink" contentStyleType="text/css" height="835px" preserveAspectRatio="none" style="width:591px;height:835px;background:#FFFFFF;" version="1.1" viewBox="0 0 591 835" width="591px" zoomAndPan="magnify"><defs/><g><rect fill="#FFFFFF" height="710.6797" style="stroke:#181818;stroke-width:1.0;" width="10" x="62" y="77.9609"/><rect fill="#FFFFFF" height="563.2734" style="stroke:#181818;stroke-width:1.0;" width="10" x="381" y="225.3672"/><rect fill="none" height="432.2188" style="stroke:#000000;stroke-width:1.5;" width="575" x="10" y="349.4219"/><rect fill="none" height="165.7578" style="stroke:#000000;stroke-width:1.5;" width="515" x="20" y="522.1797"/><line style="stroke:#181818;stroke-width:0.5;stroke-dasharray:5.0,5.0;" x1="67" x2="67" y1="37.6094" y2="798.6406"/><line style="stroke:#181818;stroke-width:0.5;stroke-dasharray:5.0,5.0;" x1="386" x2="386" y1="37.6094" y2="798.6406"/><rect fill="#E2E2F0" height="31.6094" rx="2.5" ry="2.5" style="stroke:#181818;stroke-width:0.5;" width="74" x="30" y="5"/><text fill="#000000" font-family="sans-serif" font-size="14" lengthAdjust="spacing" textLength="60" x="37" y="26.5332">Elevator1</text><rect fill="#E2E2F0" height="31.6094" rx="2.5" ry="2.5" style="stroke:#181818;stroke-width:0.5;" width="74" x="30" y="797.6406"/><text fill="#000000" font-family="sans-serif" font-size="14" lengthAdjust="spacing" textLength="60" x="37" y="819.1738">Elevator1</text><rect fill="#E2E2F0" height="31.6094" rx="2.5" ry="2.5" style="stroke:#181818;stroke-width:0.5;" width="74" x="349" y="5"/><text fill="#000000" font-family="sans-serif" font-size="14" lengthAdjust="spacing" textLength="60" x="356" y="26.5332">Elevator2</text><rect fill="#E2E2F0" height="31.6094" rx="2.5" ry="2.5" style="stroke:#181818;stroke-width:0.5;" width="74" x="349" y="797.6406"/><text fill="#000000" font-family="sans-serif" font-size="14" lengthAdjust="spacing" textLength="60" x="356" y="819.1738">Elevator2</text><rect fill="#FFFFFF" height="710.6797" style="stroke:#181818;stroke-width:1.0;" width="10" x="62" y="77.9609"/><rect fill="#FFFFFF" height="563.2734" style="stroke:#181818;stroke-width:1.0;" width="10" x="381" y="225.3672"/><line style="stroke:#181818;stroke-width:1.0;" x1="67" x2="114" y1="64.9609" y2="64.9609"/><line style="stroke:#181818;stroke-width:1.0;" x1="114" x2="114" y1="64.9609" y2="77.9609"/><line style="stroke:#181818;stroke-width:1.0;" x1="73" x2="114" y1="77.9609" y2="77.9609"/><line style="stroke:#181818;stroke-width:1.0;" x1="73" x2="83" y1="77.9609" y2="73.9609"/><line style="stroke:#181818;stroke-width:1.0;" x1="73" x2="83" y1="77.9609" y2="81.9609"/><text fill="#000000" font-family="sans-serif" font-size="13" lengthAdjust="spacing" textLength="25" x="79" y="60.1045">init()</text><line style="stroke:#181818;stroke-width:1.0;" x1="384" x2="374" y1="113.3125" y2="109.3125"/><line style="stroke:#181818;stroke-width:1.0;" x1="384" x2="374" y1="113.3125" y2="117.3125"/><line style="stroke:#181818;stroke-width:1.0;" x1="72" x2="385" y1="113.3125" y2="113.3125"/><text fill="#000000" font-family="sans-serif" font-size="13" lengthAdjust="spacing" textLength="163" x="79" y="108.4561">Ask for previous state/config</text><line style="stroke:#181818;stroke-width:1.0;" x1="73" x2="83" y1="143.6641" y2="139.6641"/><line style="stroke:#181818;stroke-width:1.0;" x1="73" x2="83" y1="143.6641" y2="147.6641"/><line style="stroke:#181818;stroke-width:1.0;stroke-dasharray:2.0,2.0;" x1="72" x2="385" y1="143.6641" y2="143.6641"/><text fill="#000000" font-family="sans-serif" font-size="13" lengthAdjust="spacing" textLength="91" x="89" y="138.8076">nack()/timeout()</text><line style="stroke:#181818;stroke-width:1.0;" x1="72" x2="114" y1="174.0156" y2="174.0156"/><line style="stroke:#181818;stroke-width:1.0;" x1="114" x2="114" y1="174.0156" y2="187.0156"/><line style="stroke:#181818;stroke-width:1.0;" x1="73" x2="114" y1="187.0156" y2="187.0156"/><line style="stroke:#181818;stroke-width:1.0;" x1="73" x2="83" y1="187.0156" y2="183.0156"/><line style="stroke:#181818;stroke-width:1.0;" x1="73" x2="83" y1="187.0156" y2="191.0156"/><text fill="#000000" font-family="sans-serif" font-size="13" lengthAdjust="spacing" textLength="125" x="79" y="169.1592">Update own snapshot</text><line style="stroke:#181818;stroke-width:1.0;" x1="386" x2="433" y1="212.3672" y2="212.3672"/><line style="stroke:#181818;stroke-width:1.0;" x1="433" x2="433" y1="212.3672" y2="225.3672"/><line style="stroke:#181818;stroke-width:1.0;" x1="392" x2="433" y1="225.3672" y2="225.3672"/><line style="stroke:#181818;stroke-width:1.0;" x1="392" x2="402" y1="225.3672" y2="221.3672"/><line style="stroke:#181818;stroke-width:1.0;" x1="392" x2="402" y1="225.3672" y2="229.3672"/><text fill="#000000" font-family="sans-serif" font-size="13" lengthAdjust="spacing" textLength="25" x="398" y="207.5107">init()</text><line style="stroke:#181818;stroke-width:1.0;" x1="73" x2="83" y1="260.7188" y2="256.7188"/><line style="stroke:#181818;stroke-width:1.0;" x1="73" x2="83" y1="260.7188" y2="264.7188"/><line style="stroke:#181818;stroke-width:1.0;" x1="72" x2="380" y1="260.7188" y2="260.7188"/><text fill="#000000" font-family="sans-serif" font-size="13" lengthAdjust="spacing" textLength="285" x="89" y="255.8623">Ask for previous state/config, broadcast snapshot</text><line style="stroke:#181818;stroke-width:1.0;" x1="379" x2="369" y1="291.0703" y2="287.0703"/><line style="stroke:#181818;stroke-width:1.0;" x1="379" x2="369" y1="291.0703" y2="295.0703"/><line style="stroke:#181818;stroke-width:1.0;stroke-dasharray:2.0,2.0;" x1="72" x2="380" y1="291.0703" y2="291.0703"/><text fill="#000000" font-family="sans-serif" font-size="13" lengthAdjust="spacing" textLength="151" x="79" y="286.2139">ack(), broadcast snapshot</text><line style="stroke:#181818;stroke-width:1.0;" x1="391" x2="433" y1="321.4219" y2="321.4219"/><line style="stroke:#181818;stroke-width:1.0;" x1="433" x2="433" y1="321.4219" y2="334.4219"/><line style="stroke:#181818;stroke-width:1.0;" x1="392" x2="433" y1="334.4219" y2="334.4219"/><line style="stroke:#181818;stroke-width:1.0;" x1="392" x2="402" y1="334.4219" y2="330.4219"/><line style="stroke:#181818;stroke-width:1.0;" x1="392" x2="402" y1="334.4219" y2="338.4219"/><text fill="#000000" font-family="sans-serif" font-size="13" lengthAdjust="spacing" textLength="125" x="398" y="316.5654">Update own snapshot</text><path d="M10,349.4219 L71,349.4219 L71,357.7734 L61,367.7734 L10,367.7734 L10,349.4219 " fill="#EEEEEE" style="stroke:#000000;stroke-width:1.5;"/><rect fill="none" height="432.2188" style="stroke:#000000;stroke-width:1.5;" width="575" x="10" y="349.4219"/><text fill="#000000" font-family="sans-serif" font-size="13" font-weight="bold" lengthAdjust="spacing" textLength="16" x="25" y="363.917">alt</text><text fill="#000000" font-family="sans-serif" font-size="11" font-weight="bold" lengthAdjust="spacing" textLength="181" x="86" y="362.8408">[hall button pushed on Elevator1]</text><line style="stroke:#181818;stroke-width:1.0;" x1="72" x2="114" y1="390.125" y2="390.125"/><line style="stroke:#181818;stroke-width:1.0;" x1="114" x2="114" y1="390.125" y2="403.125"/><line style="stroke:#181818;stroke-width:1.0;" x1="73" x2="114" y1="403.125" y2="403.125"/><line style="stroke:#181818;stroke-width:1.0;" x1="73" x2="83" y1="403.125" y2="399.125"/><line style="stroke:#181818;stroke-width:1.0;" x1="73" x2="83" y1="403.125" y2="407.125"/><text fill="#000000" font-family="sans-serif" font-size="13" lengthAdjust="spacing" textLength="230" x="79" y="385.2686">New elevator call, Update own snapshot</text><line style="stroke:#181818;stroke-width:1.0;" x1="379" x2="369" y1="433.4766" y2="429.4766"/><line style="stroke:#181818;stroke-width:1.0;" x1="379" x2="369" y1="433.4766" y2="437.4766"/><line style="stroke:#181818;stroke-width:1.0;" x1="72" x2="380" y1="433.4766" y2="433.4766"/><text fill="#000000" font-family="sans-serif" font-size="13" lengthAdjust="spacing" textLength="141" x="79" y="428.6201">broadcast new snapshot</text><line style="stroke:#181818;stroke-width:1.0;" x1="391" x2="433" y1="463.8281" y2="463.8281"/><line style="stroke:#181818;stroke-width:1.0;" x1="433" x2="433" y1="463.8281" y2="476.8281"/><line style="stroke:#181818;stroke-width:1.0;" x1="392" x2="433" y1="476.8281" y2="476.8281"/><line style="stroke:#181818;stroke-width:1.0;" x1="392" x2="402" y1="476.8281" y2="472.8281"/><line style="stroke:#181818;stroke-width:1.0;" x1="392" x2="402" y1="476.8281" y2="480.8281"/><text fill="#000000" font-family="sans-serif" font-size="13" lengthAdjust="spacing" textLength="125" x="398" y="458.9717">Update own snapshot</text><line style="stroke:#181818;stroke-width:1.0;" x1="73" x2="83" y1="507.1797" y2="503.1797"/><line style="stroke:#181818;stroke-width:1.0;" x1="73" x2="83" y1="507.1797" y2="511.1797"/><line style="stroke:#181818;stroke-width:1.0;stroke-dasharray:2.0,2.0;" x1="72" x2="380" y1="507.1797" y2="507.1797"/><text fill="#000000" font-family="sans-serif" font-size="13" lengthAdjust="spacing" textLength="151" x="89" y="502.3232">ack(), broadcast snapshot</text><path d="M20,522.1797 L93,522.1797 L93,530.5313 L83,540.5313 L20,540.5313 L20,522.1797 " fill="#EEEEEE" style="stroke:#000000;stroke-width:1.5;"/><rect fill="none" height="165.7578" style="stroke:#000000;stroke-width:1.5;" width="515" x="20" y="522.1797"/><text fill="#000000" font-family="sans-serif" font-size="13" font-weight="bold" lengthAdjust="spacing" textLength="28" x="35" y="536.6748">loop</text><text fill="#000000" font-family="sans-serif" font-size="11" font-weight="bold" lengthAdjust="spacing" textLength="233" x="108" y="535.5986">[while snapshot mismatch or not timeout]</text><line style="stroke:#181818;stroke-width:1.0;" x1="379" x2="369" y1="562.8828" y2="558.8828"/><line style="stroke:#181818;stroke-width:1.0;" x1="379" x2="369" y1="562.8828" y2="566.8828"/><line style="stroke:#181818;stroke-width:1.0;" x1="72" x2="380" y1="562.8828" y2="562.8828"/><text fill="#000000" font-family="sans-serif" font-size="13" lengthAdjust="spacing" textLength="114" x="79" y="558.0264">broadcast snapshot</text><line style="stroke:#181818;stroke-width:1.0;" x1="391" x2="433" y1="593.2344" y2="593.2344"/><line style="stroke:#181818;stroke-width:1.0;" x1="433" x2="433" y1="593.2344" y2="606.2344"/><line style="stroke:#181818;stroke-width:1.0;" x1="392" x2="433" y1="606.2344" y2="606.2344"/><line style="stroke:#181818;stroke-width:1.0;" x1="392" x2="402" y1="606.2344" y2="602.2344"/><line style="stroke:#181818;stroke-width:1.0;" x1="392" x2="402" y1="606.2344" y2="610.2344"/><text fill="#000000" font-family="sans-serif" font-size="13" lengthAdjust="spacing" textLength="125" x="398" y="588.3779">Update own snapshot</text><line style="stroke:#181818;stroke-width:1.0;" x1="73" x2="83" y1="636.5859" y2="632.5859"/><line style="stroke:#181818;stroke-width:1.0;" x1="73" x2="83" y1="636.5859" y2="640.5859"/><line style="stroke:#181818;stroke-width:1.0;stroke-dasharray:2.0,2.0;" x1="72" x2="380" y1="636.5859" y2="636.5859"/><text fill="#000000" font-family="sans-serif" font-size="13" lengthAdjust="spacing" textLength="151" x="89" y="631.7295">ack(), broadcast snapshot</text><line style="stroke:#181818;stroke-width:1.0;" x1="72" x2="114" y1="666.9375" y2="666.9375"/><line style="stroke:#181818;stroke-width:1.0;" x1="114" x2="114" y1="666.9375" y2="679.9375"/><line style="stroke:#181818;stroke-width:1.0;" x1="73" x2="114" y1="679.9375" y2="679.9375"/><line style="stroke:#181818;stroke-width:1.0;" x1="73" x2="83" y1="679.9375" y2="675.9375"/><line style="stroke:#181818;stroke-width:1.0;" x1="73" x2="83" y1="679.9375" y2="683.9375"/><text fill="#000000" font-family="sans-serif" font-size="13" lengthAdjust="spacing" textLength="125" x="79" y="662.0811">Update own snapshot</text><line style="stroke:#181818;stroke-width:1.0;" x1="72" x2="114" y1="717.2891" y2="717.2891"/><line style="stroke:#181818;stroke-width:1.0;" x1="114" x2="114" y1="717.2891" y2="730.2891"/><line style="stroke:#181818;stroke-width:1.0;" x1="73" x2="114" y1="730.2891" y2="730.2891"/><line style="stroke:#181818;stroke-width:1.0;" x1="73" x2="83" y1="730.2891" y2="726.2891"/><line style="stroke:#181818;stroke-width:1.0;" x1="73" x2="83" y1="730.2891" y2="734.2891"/><text fill="#000000" font-family="sans-serif" font-size="13" lengthAdjust="spacing" textLength="175" x="79" y="712.4326">Reassign calls to own elevator</text><line style="stroke:#181818;stroke-width:1.0;" x1="391" x2="433" y1="760.6406" y2="760.6406"/><line style="stroke:#181818;stroke-width:1.0;" x1="433" x2="433" y1="760.6406" y2="773.6406"/><line style="stroke:#181818;stroke-width:1.0;" x1="392" x2="433" y1="773.6406" y2="773.6406"/><line style="stroke:#181818;stroke-width:1.0;" x1="392" x2="402" y1="773.6406" y2="769.6406"/><line style="stroke:#181818;stroke-width:1.0;" x1="392" x2="402" y1="773.6406" y2="777.6406"/><text fill="#000000" font-family="sans-serif" font-size="13" lengthAdjust="spacing" textLength="175" x="398" y="755.7842">Reassign calls to own elevator</text><!--SRC=[dLJ1Ri8m3Btp5Jw216BjaGCIXnrssM7JFY2aXbfDaoXngRIlNuYWg1rfAtfoQZ_xlVWflY9jXHCrI2MyFp0xEZQC7zBeR_f5U5j0-489aoGhDCExmejWux9a9e-PhcwpttVn3aWJBrUnGaYcy1i7BPy1ynqSV0Kduy0wl91fF7WEs6qWUg9p3vXl-YEraDLojMMgqJJtuGbwFxQuCZAj1g-5zQNXnQ1vZzMOd3m9p2RahE7eZ2YayFoWqMVTfn4LJg86t9zfZK8KGocKWk04DXfiuqii84JzHOrSuoUsWBSZoD1hdPmsilA771tw9L4pPOrP97r_7LGPOw4jIM6NX9fyBLYM45JgSBvPhCFCqlQFv8lQNjCtHJKR7ugwcFB25uQNXSuw-i03czZfxewfRSv0Npd4eC34a_8aaVy1]--></g></svg>