<?xml version="1.0" encoding="us-ascii" standalone="no"?><svg xmlns="http://www.w3.org/2000/svg" xmlns:xlink="http://www.w3.org/1999/xlink" contentStyleType="text/css" height="1043px" preserveAspectRatio="none" style="width:746px;height:1043px;background:#FFFFFF;" version="1.1" viewBox="0 0 746 1043" width="746px" zoomAndPan="magnify"><defs/><g><rect fill="#FFFFFF" height="918.4375" style="stroke:#181818;stroke-width:1.0;" width="10" x="62" y="77.9609"/><rect fill="#FFFFFF" height="771.0313" style="stroke:#181818;stroke-width:1.0;" width="10" x="381" y="225.3672"/><rect fill="none" height="328.1641" style="stroke:#000000;stroke-width:1.5;" width="659" x="10" y="349.4219"/><rect fill="none" height="165.7578" style="stroke:#000000;stroke-width:1.5;" width="639" x="20" y="418.125"/><rect fill="none" height="297.8125" style="stroke:#000000;stroke-width:1.5;" width="730" x="10" y="691.5859"/><rect fill="none" height="135.4063" style="stroke:#000000;stroke-width:1.5;" width="516" x="20" y="760.2891"/><line style="stroke:#181818;stroke-width:0.5;stroke-dasharray:5.0,5.0;" x1="67" x2="67" y1="37.6094" y2="1006.3984"/><line style="stroke:#181818;stroke-width:0.5;stroke-dasharray:5.0,5.0;" x1="386" x2="386" y1="37.6094" y2="1006.3984"/><rect fill="#E2E2F0" height="31.6094" rx="2.5" ry="2.5" style="stroke:#181818;stroke-width:0.5;" width="74" x="30" y="5"/><text fill="#000000" font-family="sans-serif" font-size="14" lengthAdjust="spacing" textLength="60" x="37" y="26.5332">Elevator1</text><rect fill="#E2E2F0" height="31.6094" rx="2.5" ry="2.5" style="stroke:#181818;stroke-width:0.5;" width="74" x="30" y="1005.3984"/><text fill="#000000" font-family="sans-serif" font-size="14" lengthAdjust="spacing" textLength="60" x="37" y="1026.9316">Elevator1</text><rect fill="#E2E2F0" height="31.6094" rx="2.5" ry="2.5" style="stroke:#181818;stroke-width:0.5;" width="74" x="349" y="5"/><text fill="#000000" font-family="sans-serif" font-size="14" lengthAdjust="spacing" textLength="60" x="356" y="26.5332">Elevator2</text><rect fill="#E2E2F0" height="31.6094" rx="2.5" ry="2.5" style="stroke:#181818;stroke-width:0.5;" width="74" x="349" y="1005.3984"/><text fill="#000000" font-family="sans-serif" font-size="14" lengthAdjust="spacing" textLength="60" x="356" y="1026.9316">Elevator2</text><rect fill="#FFFFFF" height="918.4375" style="stroke:#181818;stroke-width:1.0;" width="10" x="62" y="77.9609"/><rect fill="#FFFFFF" height="771.0313" style="stroke:#181818;stroke-width:1.0;" width="10" x="381" y="225.3672"/><line style="stroke:#181818;stroke-width:1.0;" x1="67" x2="114" y1="64.9609" y2="64.9609"/><line style="stroke:#181818;stroke-width:1.0;" x1="114" x2="114" y1="64.9609" y2="77.9609"/><line style="stroke:#181818;stroke-width:1.0;" x1="73" x2="114" y1="77.9609" y2="77.9609"/><line style="stroke:#181818;stroke-width:1.0;" x1="73" x2="83" y1="77.9609" y2="73.9609"/><line style="stroke:#181818;stroke-width:1.0;" x1="73" x2="83" y1="77.9609" y2="81.9609"/><text fill="#000000" font-family="sans-serif" font-size="13" lengthAdjust="spacing" textLength="25" x="79" y="60.1045">init()</text><line style="stroke:#181818;stroke-width:1.0;" x1="384" x2="374" y1="113.3125" y2="109.3125"/><line style="stroke:#181818;stroke-width:1.0;" x1="384" x2="374" y1="113.3125" y2="117.3125"/><line style="stroke:#181818;stroke-width:1.0;" x1="72" x2="385" y1="113.3125" y2="113.3125"/><text fill="#000000" font-family="sans-serif" font-size="13" lengthAdjust="spacing" textLength="163" x="79" y="108.4561">Ask for previous state/config</text><line style="stroke:#181818;stroke-width:1.0;" x1="73" x2="83" y1="143.6641" y2="139.6641"/><line style="stroke:#181818;stroke-width:1.0;" x1="73" x2="83" y1="143.6641" y2="147.6641"/><line style="stroke:#181818;stroke-width:1.0;stroke-dasharray:2.0,2.0;" x1="72" x2="385" y1="143.6641" y2="143.6641"/><text fill="#000000" font-family="sans-serif" font-size="13" lengthAdjust="spacing" textLength="91" x="89" y="138.8076">nack()/timeout()</text><line style="stroke:#181818;stroke-width:1.0;" x1="72" x2="114" y1="174.0156" y2="174.0156"/><line style="stroke:#181818;stroke-width:1.0;" x1="114" x2="114" y1="174.0156" y2="187.0156"/><line style="stroke:#181818;stroke-width:1.0;" x1="73" x2="114" y1="187.0156" y2="187.0156"/><line style="stroke:#181818;stroke-width:1.0;" x1="73" x2="83" y1="187.0156" y2="183.0156"/><line style="stroke:#181818;stroke-width:1.0;" x1="73" x2="83" y1="187.0156" y2="191.0156"/><text fill="#000000" font-family="sans-serif" font-size="13" lengthAdjust="spacing" textLength="125" x="79" y="169.1592">Update own snapshot</text><line style="stroke:#181818;stroke-width:1.0;" x1="386" x2="433" y1="212.3672" y2="212.3672"/><line style="stroke:#181818;stroke-width:1.0;" x1="433" x2="433" y1="212.3672" y2="225.3672"/><line style="stroke:#181818;stroke-width:1.0;" x1="392" x2="433" y1="225.3672" y2="225.3672"/><line style="stroke:#181818;stroke-width:1.0;" x1="392" x2="402" y1="225.3672" y2="221.3672"/><line style="stroke:#181818;stroke-width:1.0;" x1="392" x2="402" y1="225.3672" y2="229.3672"/><text fill="#000000" font-family="sans-serif" font-size="13" lengthAdjust="spacing" textLength="25" x="398" y="207.5107">init()</text><line style="stroke:#181818;stroke-width:1.0;" x1="73" x2="83" y1="260.7188" y2="256.7188"/><line style="stroke:#181818;stroke-width:1.0;" x1="73" x2="83" y1="260.7188" y2="264.7188"/><line style="stroke:#181818;stroke-width:1.0;" x1="72" x2="380" y1="260.7188" y2="260.7188"/><text fill="#000000" font-family="sans-serif" font-size="13" lengthAdjust="spacing" textLength="285" x="89" y="255.8623">Ask for previous state/config, broadcast snapshot</text><line style="stroke:#181818;stroke-width:1.0;" x1="379" x2="369" y1="291.0703" y2="287.0703"/><line style="stroke:#181818;stroke-width:1.0;" x1="379" x2="369" y1="291.0703" y2="295.0703"/><line style="stroke:#181818;stroke-width:1.0;stroke-dasharray:2.0,2.0;" x1="72" x2="380" y1="291.0703" y2="291.0703"/><text fill="#000000" font-family="sans-serif" font-size="13" lengthAdjust="spacing" textLength="151" x="79" y="286.2139">ack(), broadcast snapshot</text><line style="stroke:#181818;stroke-width:1.0;" x1="391" x2="433" y1="321.4219" y2="321.4219"/><line style="stroke:#181818;stroke-width:1.0;" x1="433" x2="433" y1="321.4219" y2="334.4219"/><line style="stroke:#181818;stroke-width:1.0;" x1="392" x2="433" y1="334.4219" y2="334.4219"/><line style="stroke:#181818;stroke-width:1.0;" x1="392" x2="402" y1="334.4219" y2="330.4219"/><line style="stroke:#181818;stroke-width:1.0;" x1="392" x2="402" y1="334.4219" y2="338.4219"/><text fill="#000000" font-family="sans-serif" font-size="13" lengthAdjust="spacing" textLength="125" x="398" y="316.5654">Update own snapshot</text><path d="M10,349.4219 L71,349.4219 L71,357.7734 L61,367.7734 L10,367.7734 L10,349.4219 " fill="#EEEEEE" style="stroke:#000000;stroke-width:1.5;"/><rect fill="none" height="328.1641" style="stroke:#000000;stroke-width:1.5;" width="659" x="10" y="349.4219"/><text fill="#000000" font-family="sans-serif" font-size="13" font-weight="bold" lengthAdjust="spacing" textLength="16" x="25" y="363.917">alt</text><text fill="#000000" font-family="sans-serif" font-size="11" font-weight="bold" lengthAdjust="spacing" textLength="261" x="86" y="362.8408">[order completed on elevator 2, network intact]</text><line style="stroke:#181818;stroke-width:1.0;" x1="391" x2="433" y1="390.125" y2="390.125"/><line style="stroke:#181818;stroke-width:1.0;" x1="433" x2="433" y1="390.125" y2="403.125"/><line style="stroke:#181818;stroke-width:1.0;" x1="392" x2="433" y1="403.125" y2="403.125"/><line style="stroke:#181818;stroke-width:1.0;" x1="392" x2="402" y1="403.125" y2="399.125"/><line style="stroke:#181818;stroke-width:1.0;" x1="392" x2="402" y1="403.125" y2="407.125"/><text fill="#000000" font-family="sans-serif" font-size="13" lengthAdjust="spacing" textLength="229" x="398" y="385.2686">Order completed, Update own snapshot</text><path d="M20,418.125 L93,418.125 L93,426.4766 L83,436.4766 L20,436.4766 L20,418.125 " fill="#EEEEEE" style="stroke:#000000;stroke-width:1.5;"/><rect fill="none" height="165.7578" style="stroke:#000000;stroke-width:1.5;" width="639" x="20" y="418.125"/><text fill="#000000" font-family="sans-serif" font-size="13" font-weight="bold" lengthAdjust="spacing" textLength="28" x="35" y="432.6201">loop</text><text fill="#000000" font-family="sans-serif" font-size="11" font-weight="bold" lengthAdjust="spacing" textLength="233" x="108" y="431.5439">[while snapshot mismatch or not timeout]</text><line style="stroke:#181818;stroke-width:1.0;" x1="73" x2="83" y1="458.8281" y2="454.8281"/><line style="stroke:#181818;stroke-width:1.0;" x1="73" x2="83" y1="458.8281" y2="462.8281"/><line style="stroke:#181818;stroke-width:1.0;" x1="72" x2="380" y1="458.8281" y2="458.8281"/><text fill="#000000" font-family="sans-serif" font-size="13" lengthAdjust="spacing" textLength="114" x="89" y="453.9717">broadcast snapshot</text><line style="stroke:#181818;stroke-width:1.0;" x1="72" x2="114" y1="489.1797" y2="489.1797"/><line style="stroke:#181818;stroke-width:1.0;" x1="114" x2="114" y1="489.1797" y2="502.1797"/><line style="stroke:#181818;stroke-width:1.0;" x1="73" x2="114" y1="502.1797" y2="502.1797"/><line style="stroke:#181818;stroke-width:1.0;" x1="73" x2="83" y1="502.1797" y2="498.1797"/><line style="stroke:#181818;stroke-width:1.0;" x1="73" x2="83" y1="502.1797" y2="506.1797"/><text fill="#000000" font-family="sans-serif" font-size="13" lengthAdjust="spacing" textLength="125" x="79" y="484.3232">Update own snapshot</text><line style="stroke:#181818;stroke-width:1.0;" x1="379" x2="369" y1="532.5313" y2="528.5313"/><line style="stroke:#181818;stroke-width:1.0;" x1="379" x2="369" y1="532.5313" y2="536.5313"/><line style="stroke:#181818;stroke-width:1.0;stroke-dasharray:2.0,2.0;" x1="72" x2="380" y1="532.5313" y2="532.5313"/><text fill="#000000" font-family="sans-serif" font-size="13" lengthAdjust="spacing" textLength="151" x="79" y="527.6748">ack(), broadcast snapshot</text><line style="stroke:#181818;stroke-width:1.0;" x1="391" x2="433" y1="562.8828" y2="562.8828"/><line style="stroke:#181818;stroke-width:1.0;" x1="433" x2="433" y1="562.8828" y2="575.8828"/><line style="stroke:#181818;stroke-width:1.0;" x1="392" x2="433" y1="575.8828" y2="575.8828"/><line style="stroke:#181818;stroke-width:1.0;" x1="392" x2="402" y1="575.8828" y2="571.8828"/><line style="stroke:#181818;stroke-width:1.0;" x1="392" x2="402" y1="575.8828" y2="579.8828"/><text fill="#000000" font-family="sans-serif" font-size="13" lengthAdjust="spacing" textLength="249" x="398" y="558.0264">Compare snapshots, Update own snapshot</text><line style="stroke:#181818;stroke-width:1.0;" x1="72" x2="114" y1="613.2344" y2="613.2344"/><line style="stroke:#181818;stroke-width:1.0;" x1="114" x2="114" y1="613.2344" y2="626.2344"/><line style="stroke:#181818;stroke-width:1.0;" x1="73" x2="114" y1="626.2344" y2="626.2344"/><line style="stroke:#181818;stroke-width:1.0;" x1="73" x2="83" y1="626.2344" y2="622.2344"/><line style="stroke:#181818;stroke-width:1.0;" x1="73" x2="83" y1="626.2344" y2="630.2344"/><text fill="#000000" font-family="sans-serif" font-size="13" lengthAdjust="spacing" textLength="175" x="79" y="608.3779">Reassign calls to own elevator</text><line style="stroke:#181818;stroke-width:1.0;" x1="391" x2="433" y1="656.5859" y2="656.5859"/><line style="stroke:#181818;stroke-width:1.0;" x1="433" x2="433" y1="656.5859" y2="669.5859"/><line style="stroke:#181818;stroke-width:1.0;" x1="392" x2="433" y1="669.5859" y2="669.5859"/><line style="stroke:#181818;stroke-width:1.0;" x1="392" x2="402" y1="669.5859" y2="665.5859"/><line style="stroke:#181818;stroke-width:1.0;" x1="392" x2="402" y1="669.5859" y2="673.5859"/><text fill="#000000" font-family="sans-serif" font-size="13" lengthAdjust="spacing" textLength="175" x="398" y="651.7295">Reassign calls to own elevator</text><path d="M10,691.5859 L71,691.5859 L71,699.9375 L61,709.9375 L10,709.9375 L10,691.5859 " fill="#EEEEEE" style="stroke:#000000;stroke-width:1.5;"/><rect fill="none" height="297.8125" style="stroke:#000000;stroke-width:1.5;" width="730" x="10" y="691.5859"/><text fill="#000000" font-family="sans-serif" font-size="13" font-weight="bold" lengthAdjust="spacing" textLength="16" x="25" y="706.0811">alt</text><text fill="#000000" font-family="sans-serif" font-size="11" font-weight="bold" lengthAdjust="spacing" textLength="262" x="86" y="705.0049">[order completed on elevator 2, network down]</text><line style="stroke:#181818;stroke-width:1.0;" x1="391" x2="433" y1="732.2891" y2="732.2891"/><line style="stroke:#181818;stroke-width:1.0;" x1="433" x2="433" y1="732.2891" y2="745.2891"/><line style="stroke:#181818;stroke-width:1.0;" x1="392" x2="433" y1="745.2891" y2="745.2891"/><line style="stroke:#181818;stroke-width:1.0;" x1="392" x2="402" y1="745.2891" y2="741.2891"/><line style="stroke:#181818;stroke-width:1.0;" x1="392" x2="402" y1="745.2891" y2="749.2891"/><text fill="#000000" font-family="sans-serif" font-size="13" lengthAdjust="spacing" textLength="229" x="398" y="727.4326">Order completed, Update own snapshot</text><path d="M20,760.2891 L93,760.2891 L93,768.6406 L83,778.6406 L20,778.6406 L20,760.2891 " fill="#EEEEEE" style="stroke:#000000;stroke-width:1.5;"/><rect fill="none" height="135.4063" style="stroke:#000000;stroke-width:1.5;" width="516" x="20" y="760.2891"/><text fill="#000000" font-family="sans-serif" font-size="13" font-weight="bold" lengthAdjust="spacing" textLength="28" x="35" y="774.7842">loop</text><text fill="#000000" font-family="sans-serif" font-size="11" font-weight="bold" lengthAdjust="spacing" textLength="233" x="108" y="773.708">[while snapshot mismatch or not timeout]</text><line style="stroke:#181818;stroke-width:2.0;" x1="79" x2="89" y1="795.9922" y2="805.9922"/><line style="stroke:#181818;stroke-width:2.0;" x1="79" x2="89" y1="805.9922" y2="795.9922"/><line style="stroke:#181818;stroke-width:1.0;" x1="84" x2="380" y1="800.9922" y2="800.9922"/><text fill="#000000" font-family="sans-serif" font-size="13" lengthAdjust="spacing" textLength="114" x="89" y="796.1357">broadcast snapshot</text><line style="stroke:#181818;stroke-width:1.0;" x1="72" x2="114" y1="831.3438" y2="831.3438"/><line style="stroke:#181818;stroke-width:1.0;" x1="114" x2="114" y1="831.3438" y2="844.3438"/><line style="stroke:#181818;stroke-width:1.0;" x1="73" x2="114" y1="844.3438" y2="844.3438"/><line style="stroke:#181818;stroke-width:1.0;" x1="73" x2="83" y1="844.3438" y2="840.3438"/><line style="stroke:#181818;stroke-width:1.0;" x1="73" x2="83" y1="844.3438" y2="848.3438"/><text fill="#000000" font-family="sans-serif" font-size="13" lengthAdjust="spacing" textLength="47" x="79" y="826.4873">Idle wait</text><line style="stroke:#181818;stroke-width:1.0;" x1="391" x2="433" y1="874.6953" y2="874.6953"/><line style="stroke:#181818;stroke-width:1.0;" x1="433" x2="433" y1="874.6953" y2="887.6953"/><line style="stroke:#181818;stroke-width:1.0;" x1="392" x2="433" y1="887.6953" y2="887.6953"/><line style="stroke:#181818;stroke-width:1.0;" x1="392" x2="402" y1="887.6953" y2="883.6953"/><line style="stroke:#181818;stroke-width:1.0;" x1="392" x2="402" y1="887.6953" y2="891.6953"/><text fill="#000000" font-family="sans-serif" font-size="13" lengthAdjust="spacing" textLength="126" x="398" y="869.8389">No ack received, retry</text><line style="stroke:#181818;stroke-width:1.0;" x1="391" x2="433" y1="925.0469" y2="925.0469"/><line style="stroke:#181818;stroke-width:1.0;" x1="433" x2="433" y1="925.0469" y2="938.0469"/><line style="stroke:#181818;stroke-width:1.0;" x1="392" x2="433" y1="938.0469" y2="938.0469"/><line style="stroke:#181818;stroke-width:1.0;" x1="392" x2="402" y1="938.0469" y2="934.0469"/><line style="stroke:#181818;stroke-width:1.0;" x1="392" x2="402" y1="938.0469" y2="942.0469"/><text fill="#000000" font-family="sans-serif" font-size="13" lengthAdjust="spacing" textLength="330" x="398" y="920.1904">Assign Elevator1 as stale, Reassign calls to own elevator</text><line style="stroke:#181818;stroke-width:1.0;" x1="72" x2="114" y1="968.3984" y2="968.3984"/><line style="stroke:#181818;stroke-width:1.0;" x1="114" x2="114" y1="968.3984" y2="981.3984"/><line style="stroke:#181818;stroke-width:1.0;" x1="73" x2="114" y1="981.3984" y2="981.3984"/><line style="stroke:#181818;stroke-width:1.0;" x1="73" x2="83" y1="981.3984" y2="977.3984"/><line style="stroke:#181818;stroke-width:1.0;" x1="73" x2="83" y1="981.3984" y2="985.3984"/><text fill="#000000" font-family="sans-serif" font-size="13" lengthAdjust="spacing" textLength="233" x="79" y="963.542">No updates, remain idle/ serve own calls</text><!--SRC=[fLJDRi8m3BxlANm4gGZH8mSaDEsmooPDsWDaYO68DAuIqsvllpH0KJfIXhYrjJz_FxOA050BnrhgMbY65uEDO7AB9yXKobZf-sQhLV-y16qrJwQnGqZMuJCEHbu3bajO-prio47jiD5qyE0vOEUIx4Pl4s0vIocjaFl9TCwwGZgSoJFoFclLAQBMWhUYzZlYfy7mHDMOdJ8BNDomKy2N8w6ay7oHaQfEPKI7Dr43xTUyTkr7DuQ1d487aghQ8AC2ie0dE9G5MEIMt3vamC7x6DDxEgZ8nso8QcXtsc1VW4hxIh3S1JrWm_jfaR5_9E5C67Sk_o_adkH7CdaEQGXtiUcBB3zQDNQp7oYyrriBKXZZWIbEE6zgR2__G7RSznw42bCUFeV-4XyxYMzuw2HULQ1jXRwvpZVgJW4SIjHDvyaXkvyqmWnqVTn1pmeY_WqC5lUiTY0yw3d4L7qdfHBQWWvUvk3HDSUeuynKeSBCJ_bAeVm5]--></g></svg>